<?xml version="1.0" standalone="no"?><!DOCTYPE svg PUBLIC "-//W3C//DTD SVG 1.1//EN" "http://www.w3.org/Graphics/SVG/1.1/DTD/svg11.dtd"><svg t="1649484522138" class="icon" viewBox="0 0 1256 1024" version="1.1" xmlns="http://www.w3.org/2000/svg" p-id="3763" xmlns:xlink="http://www.w3.org/1999/xlink" width="245.3125" height="200"><defs><style type="text/css"></style></defs><path d="M1015.784727 278.272H693.061818a46.289455 46.289455 0 0 0-46.196363 46.359273v417.047272a93.090909 93.090909 0 0 1-93.09091 93.09091H93.090909a93.090909 93.090909 0 0 1-93.090909-93.09091V93.090909a93.090909 93.090909 0 0 1 93.090909-93.090909h922.693818a93.090909 93.090909 0 0 1 93.090909 93.090909v92.090182a93.090909 93.090909 0 0 1-93.090909 93.090909z m-368.942545 695.621818c0 25.623273-20.759273 46.405818-46.382546 46.405818H323.421091a46.289455 46.289455 0 0 1-46.196364-46.382545c0-25.6 20.689455-46.382545 46.196364-46.382546h277.038545c25.6 0 46.382545 20.759273 46.382546 46.382546z m111.499636-602.88h190.976c10.542545 0 19.083636 14.615273 19.083637 32.651637v587.682909c0 18.036364-8.541091 32.651636-19.083637 32.651636h-190.976c-10.542545 0-19.083636-14.615273-19.083636-32.651636V403.665455c0-18.036364 8.541091-32.651636 19.083636-32.651637z m288.325818 163.258182h190.952728c10.565818 0 19.106909 10.938182 19.106909 24.482909v440.762182c0 13.498182-8.541091 24.482909-19.083637 24.482909h-190.976c-10.565818 0-19.106909-10.961455-19.106909-24.482909v-440.785455c0-13.498182 8.541091-24.459636 19.083637-24.459636z" fill="#ffffff" p-id="3764"></path></svg>